<svg width="108" height="21" viewBox="0 0 108 21" fill="none" xmlns="http://www.w3.org/2000/svg">
<path d="M22.8077 9.05176C20.2883 9.05176 17.3977 11.4122 16.7161 14.5341C16.0637 17.5204 17.7846 19.8642 20.448 19.8642C22.7515 19.8642 25.6308 17.8845 26.4766 14.5341C27.246 11.486 25.4711 9.05176 22.8077 9.05176ZM24.4206 14.5484C23.8155 17.3229 22.8145 19.5739 20.4975 19.4669C18.4325 19.3717 18.158 17.3229 18.7631 14.5484C19.3682 11.7739 20.421 9.35633 22.7425 9.47769C25.0437 9.59904 25.019 12.1118 24.4206 14.5484Z" fill="#111111"/>
<path d="M33.5421 9.05176C31.0227 9.05176 28.1321 11.4122 27.4505 14.5341C26.7981 17.5204 28.519 19.8642 31.1824 19.8642C33.4859 19.8642 36.3652 17.8845 37.211 14.5341C37.9803 11.486 36.2055 9.05176 33.5421 9.05176ZM35.155 14.5484C34.5499 17.3229 33.5488 19.5739 31.2319 19.4669C29.1668 19.3717 28.8924 17.3229 29.4975 14.5484C30.1026 11.7739 31.1554 9.35633 33.4769 9.47769C35.7781 9.59904 35.7533 12.1118 35.155 14.5484Z" fill="#111111"/>
<path d="M41.2669 0.000244141V19.5146H42.8596V19.862H37.751V19.5146H39.4381V0.347652H37.751V0.000244141H41.2647H41.2669ZM40.9385 13.0709L46.2338 8.24524H44.4365V7.89783H48.4361V8.24524H46.7962L42.5311 12.1119L49.0457 19.5146H50.4989V19.862H44.9224V19.5146H46.7669L40.9408 13.0709H40.9385Z" fill="#111111"/>
<path d="M9.06096 8.93981C10.0597 8.93981 11.0068 9.18014 11.8953 9.65842C12.7839 10.1367 13.5015 10.7815 14.0436 11.5906C14.5857 12.3996 14.8556 13.28 14.8556 14.2271V14.4912C14.8556 15.5715 14.5407 16.5185 13.9109 17.3347C13.281 18.1509 12.4937 18.7743 11.5511 19.2098C10.6086 19.6452 9.68406 19.8617 8.77752 19.8617H0V19.4977H2.218V0.364065H0V0H8.63805C9.5131 0 10.3184 0.197499 11.0518 0.594877C11.7851 0.992254 12.3655 1.53716 12.7929 2.23198C13.2203 2.92679 13.434 3.68586 13.434 4.51154C13.434 5.33723 13.236 6.10581 12.8401 6.78397C12.4442 7.46213 11.9133 7.99038 11.2475 8.37111C10.5816 8.75183 9.85053 8.94219 9.06096 8.94219V8.93981ZM2.218 0V0.364065H0V0H2.218ZM2.218 19.4977V19.8617H0V19.4977H2.218ZM4.42025 0V19.8617H2.218V0H4.42025ZM6.63825 0V0.364065H4.42025V0H6.63825ZM4.42025 8.75896H6.59101C7.66402 8.75896 8.54357 8.61382 9.23192 8.32114C9.92026 8.02846 10.4354 7.57159 10.7796 6.95054C11.1237 6.32711 11.2947 5.5157 11.2947 4.51392C11.2947 3.51215 11.1395 2.74119 10.8268 2.13442C10.5141 1.52764 10.0395 1.08268 9.40513 0.797135C8.76852 0.511594 7.9677 0.366444 7.00042 0.366444H4.4225V8.76134L4.42025 8.75896ZM7.51331 19.5001C8.29388 19.5001 9.05196 19.3549 9.78529 19.0622C10.5186 18.7696 11.1417 18.2627 11.6524 17.5417C12.163 16.8207 12.4172 15.8475 12.4172 14.6244V14.1462C12.4172 12.8803 12.1383 11.8737 11.5826 11.1313C11.0248 10.3889 10.3117 9.86782 9.44337 9.57038C8.57507 9.27294 7.62353 9.12303 6.59326 9.12303H4.4225V19.5001H7.51555H7.51331ZM6.63825 19.5001V19.8641H4.42025V19.5001H6.63825Z" fill="#111111"/>
<path d="M79.6994 9.05176C77.1799 9.05176 74.2893 11.4122 73.6077 14.5341C72.9261 17.6561 74.6762 19.8642 77.3396 19.8642C79.6431 19.8642 82.5225 17.8845 83.3683 14.5341C84.1376 11.486 82.3628 9.05176 79.6994 9.05176ZM81.3122 14.5484C80.7071 17.3229 79.7061 19.5739 77.3891 19.4669C75.3241 19.3717 75.0497 17.3229 75.6548 14.5484C76.2599 11.7739 77.3126 9.35633 79.6341 9.47769C81.9353 9.59904 81.9106 12.1118 81.3122 14.5484Z" fill="#111111"/>
<path d="M90.4342 9.05176C87.9147 9.05176 85.0242 11.4122 84.3426 14.5341C83.6902 17.5204 85.4111 19.8642 88.0745 19.8642C90.3779 19.8642 93.2573 17.8845 94.1031 14.5341C94.8724 11.486 93.0976 9.05176 90.4342 9.05176ZM92.0471 14.5484C91.442 17.3229 90.4409 19.5739 88.124 19.4669C86.0589 19.3717 85.7845 17.3229 86.3896 14.5484C86.9947 11.7739 88.0475 9.35633 90.3689 9.47769C92.6702 9.59904 92.6454 12.1118 92.0471 14.5484Z" fill="#111111"/>
<path d="M98.159 0.000244141V19.5146H99.7517V19.862H94.6431V19.5146H96.3302V0.347652H94.6431V0.000244141H98.1568H98.159ZM97.8306 13.0709L103.126 8.24524H101.329V7.89783H105.328V8.24524H103.688L99.4232 12.1119L105.938 19.5146H107.391V19.862H101.814V19.5146H103.659L97.8329 13.0709H97.8306Z" fill="#111111"/>
<path d="M70.02 16.4378H70.0718L73.0726 4.34043C73.7137 1.84432 73.4055 1.3827 70.7646 0.975802L70.8164 0.730713H77.2521L77.2004 0.975802C74.5325 1.43743 74.1996 1.8705 73.5855 4.34043L69.6354 20.0999H69.3024L61.1728 2.90082H61.148L57.866 16.0024C57.2497 18.4699 57.4566 18.9863 60.1223 19.3932L60.0705 19.6383H53.5312L53.583 19.3932C56.3004 18.9601 56.7368 18.4699 57.3531 16.0024L60.5339 3.33389C60.8421 2.13938 60.4574 1.13761 58.1225 0.947248L58.1742 0.730713H62.6102L70.0223 16.4378H70.02Z" fill="#111111"/>
</svg>
