<svg width="24" height="24" viewBox="0 0 24 24" fill="none" xmlns="http://www.w3.org/2000/svg">
<path fill-rule="evenodd" clip-rule="evenodd" d="M10.8329 5.83339C10.5755 7.10127 9.45456 8.05556 8.11071 8.05556C6.76687 8.05556 5.64591 7.10127 5.38851 5.83339H2V4.72228H5.38849C5.64584 3.45434 6.76683 2.5 8.11071 2.5C9.4546 2.5 10.5756 3.45434 10.8329 4.72228H22.0005V5.83339H10.8329ZM22.0001 11.3887L18.6114 11.3887C18.3539 10.1208 17.233 9.1666 15.8892 9.1666C14.5453 9.1666 13.4243 10.1209 13.167 11.3889H2V12.5H13.167C13.4244 13.7679 14.5453 14.7222 15.8892 14.7222C17.2331 14.7222 18.3541 13.7678 18.6114 12.4998L22.0001 12.4998V11.3887ZM10.833 19.1666C10.5757 20.4346 9.45464 21.389 8.11071 21.389C6.76678 21.389 5.64576 20.4346 5.38846 19.1666H2V18.0555H5.38854C5.64598 16.7877 6.76691 15.8334 8.11071 15.8334C9.45451 15.8334 10.5754 16.7877 10.8329 18.0555L21.9997 18.0555V19.1666L10.833 19.1666Z" fill="#111111"/>
</svg>
