<svg width="216" height="66" viewBox="0 0 216 66" fill="none" xmlns="http://www.w3.org/2000/svg">
<rect x="9" width="206.25" height="22.6875" fill="#151515"/>
<rect x="0.75" y="22.6875" width="206.25" height="20.625" fill="#151515"/>
<rect x="4.875" y="43.3125" width="206.25" height="22.6875" fill="#151515"/>
<path d="M55.5307 30.8623C51.3021 30.8623 46.4506 34.6076 45.3066 39.5611C44.2117 44.2994 47.1 48.0183 51.5702 48.0183C55.4363 48.0183 60.269 44.8771 61.6886 39.5611C62.9799 34.7247 60.001 30.8623 55.5307 30.8623ZM58.2378 39.5838C57.2222 43.9861 55.5421 47.5577 51.6533 47.3878C48.1873 47.2368 47.7267 43.9861 48.7423 39.5838C49.758 35.1815 51.5249 31.3456 55.4212 31.5381C59.2836 31.7307 59.2421 35.7176 58.2378 39.5838Z" fill="#FDFDFD"/>
<path d="M73.5464 30.8623C69.3178 30.8623 64.4662 34.6076 63.3222 39.5611C62.2273 44.2994 65.1156 48.0183 69.5858 48.0183C73.452 48.0183 78.2847 44.8771 79.7043 39.5611C80.9955 34.7247 78.0166 30.8623 73.5464 30.8623ZM76.2534 39.5838C75.2378 43.9861 73.5577 47.5577 69.6689 47.3878C66.203 47.2368 65.7423 43.9861 66.758 39.5838C67.7736 35.1815 69.5405 31.3456 73.4369 31.5381C77.2992 31.7307 77.2577 35.7176 76.2534 39.5838Z" fill="#FDFDFD"/>
<path d="M86.5105 16.5V47.4631H89.1836V48.0144H80.6094V47.4631H83.441V17.0512H80.6094V16.5H86.5068H86.5105ZM85.9593 37.239L94.8469 29.5822H91.8303V29.031H98.5431V29.5822H95.7908L88.6324 35.7175L99.5663 47.4631H102.005V48.0144H92.6458V47.4631H95.7417L85.9631 37.239H85.9593Z" fill="#FDFDFD"/>
<path d="M32.4578 30.6847C34.1342 30.6847 35.7237 31.066 37.215 31.8249C38.7063 32.5838 39.9107 33.6069 40.8206 34.8906C41.7305 36.1743 42.1836 37.5712 42.1836 39.0739V39.493C42.1836 41.2071 41.655 42.7097 40.5979 44.0047C39.5407 45.2997 38.2193 46.2889 36.6374 46.9799C35.0554 47.6708 33.5037 48.0144 31.9821 48.0144H17.25V47.4367H20.9727V17.0777H17.25V16.5H31.748C33.2167 16.5 34.5684 16.8134 35.7992 17.4439C37.03 18.0744 38.0041 18.939 38.7214 20.0414C39.4388 21.1439 39.7975 22.3483 39.7975 23.6584C39.7975 24.9685 39.4652 26.188 38.8007 27.264C38.1362 28.3401 37.2452 29.1782 36.1277 29.7823C35.0101 30.3864 33.7831 30.6884 32.4578 30.6884V30.6847ZM20.9727 16.5V17.0777H17.25V16.5H20.9727ZM20.9727 47.4367V48.0144H17.25V47.4367H20.9727ZM24.6689 16.5V48.0144H20.9727V16.5H24.6689ZM28.3916 16.5V17.0777H24.6689V16.5H28.3916ZM24.6689 30.3977H28.3123C30.1132 30.3977 31.5895 30.1674 32.7448 29.703C33.9001 29.2386 34.7647 28.5137 35.3423 27.5283C35.92 26.5391 36.2069 25.2517 36.2069 23.6622C36.2069 22.0727 35.9464 20.8494 35.4216 19.8867C34.8968 18.9239 34.1002 18.2179 33.0355 17.7648C31.967 17.3117 30.6229 17.0814 28.9995 17.0814H24.6727V30.4015L24.6689 30.3977ZM29.8603 47.4405C31.1704 47.4405 32.4427 47.2102 33.6736 46.7458C34.9044 46.2814 35.9502 45.4772 36.8073 44.3332C37.6643 43.1892 38.0909 41.645 38.0909 39.7044V38.9455C38.0909 36.937 37.6228 35.3399 36.6902 34.1619C35.7539 32.984 34.557 32.1571 33.0997 31.6852C31.6423 31.2132 30.0453 30.9754 28.3161 30.9754H24.6727V47.4405H29.864H29.8603ZM28.3916 47.4405V48.0181H24.6689V47.4405H28.3916Z" fill="#FDFDFD"/>
<path d="M151.015 30.8623C146.787 30.8623 141.935 34.6076 140.791 39.5611C139.647 44.5146 142.584 48.0183 147.055 48.0183C150.921 48.0183 155.753 44.8771 157.173 39.5611C158.464 34.7247 155.485 30.8623 151.015 30.8623ZM153.722 39.5838C152.707 43.9861 151.026 47.5577 147.138 47.3878C143.672 47.2368 143.211 43.9861 144.227 39.5838C145.242 35.1815 147.009 31.3456 150.906 31.5381C154.768 31.7307 154.726 35.7176 153.722 39.5838Z" fill="#FDFDFD"/>
<path d="M169.031 30.8623C164.802 30.8623 159.951 34.6076 158.807 39.5611C157.712 44.2994 160.6 48.0183 165.07 48.0183C168.936 48.0183 173.769 44.8771 175.189 39.5611C176.48 34.7247 173.501 30.8623 169.031 30.8623ZM171.738 39.5838C170.722 43.9861 169.042 47.5577 165.153 47.3878C161.687 47.2368 161.227 43.9861 162.242 39.5838C163.258 35.1815 165.025 31.3456 168.921 31.5381C172.784 31.7307 172.742 35.7176 171.738 39.5838Z" fill="#FDFDFD"/>
<path d="M181.995 16.5V47.4631H184.668V48.0144H176.094V47.4631H178.925V17.0512H176.094V16.5H181.991H181.995ZM181.444 37.239L190.331 29.5822H187.315V29.031H194.028V29.5822H191.275L184.117 35.7175L195.051 47.4631H197.49V48.0144H188.13V47.4631H191.226L181.447 37.239H181.444Z" fill="#FDFDFD"/>
<path d="M134.768 42.5815H134.855L139.892 23.3867C140.968 19.4261 140.451 18.6937 136.018 18.0481L136.105 17.6592H146.907L146.82 18.0481C142.342 18.7805 141.783 19.4677 140.753 23.3867L134.123 48.392H133.564L119.919 21.1025H119.878L114.369 41.8905C113.335 45.8058 113.682 46.6251 118.156 47.2707L118.069 47.6595H107.094L107.181 47.2707C111.741 46.5835 112.474 45.8058 113.508 41.8905L118.847 21.7896C119.364 19.8943 118.719 18.3048 114.8 18.0028L114.886 17.6592H122.332L134.772 42.5815H134.768Z" fill="#FDFDFD"/>
</svg>
